# xmcd
#
# Track frame offsets: 
#        150
#        30256
#        46147
#        62989
#        80568
#        101232
#        116053
#        130782
#        153163
#        164622
#        176009
#        190735
#        203651
#        215943
#        228016
#        244219
#        266065
#        277441
#        289172
#        301640
#
# Disc length: 4192 seconds
#
# Revision: 0
# Processed by: cddbd v1.5.2PL0 Copyright (c) Steve Scherf et al.
# Submitted via: ExactAudioCopy v0.99pb4
#
DISCID=26105e14
DTITLE=Norma Jenkins - Patience Is A Virtue
DYEAR=1976
DGENRE=Soul
TTITLE0=Love Jones
TTITLE1=I Fooled You (Didn't I)
TTITLE2=I Did It For Real
TTITLE3=Can You Imagine That
TTITLE4=Gimme Some (Of Your Love)
TTITLE5=Reachin' Out In Darkness
TTITLE6=It's All Over Now
TTITLE7=You've Been Here Since Then
TTITLE8=Puzzle Man (Figure Me Out If You Can)
TTITLE9=Puzzle Man (Figure Me Out If You Can) (Instrumental)
TTITLE10=One Girl Too Many
TTITLE11=Go Home To Your Wife
TTITLE12=A Good Love Gone Bad
TTITLE13=I Can Wait My Turn
TTITLE14=Love Jones (Single Edit)
TTITLE15=Love Jones (Single Long Version)
TTITLE16=A Lover's Stand
TTITLE17=The Airplane Song
TTITLE18=This Is Our Day
TTITLE19=What's Next
EXTD=
EXTT0=
EXTT1=
EXTT2=
EXTT3=
EXTT4=
EXTT5=
EXTT6=
EXTT7=
EXTT8=
EXTT9=
EXTT10=
EXTT11=
EXTT12=
EXTT13=
EXTT14=
EXTT15=
EXTT16=
EXTT17=
EXTT18=
EXTT19=
PLAYORDER=
